# xmcd
#
# Track frame offsets: 
#        150
#        12225
#        27282
#        40875
#        53130
#        64487
#        77687
#        91982
#        105632
#        118845
#        131582
#        143075
#        155792
#        167785
#        180410
#        194595
#        206970
#        221970
#        235582
#        248835
#        261625
#        274695
#        286620
#
# Disc length: 4156 seconds
#
# Revision: 4
# Processed by: cddbd v1.5.2PL0 Copyright (c) Steve Scherf et al.
# Submitted via: ExactAudioCopyFreeDBPlugin 1.0
#
DISCID=5b103a17
DTITLE=Various Artist - Santa Claus Blues, Jass Records
DYEAR=1988
DGENRE=Christmas
TTITLE0=Clarence Williams' Blue Five with Louis Armstrong - Santa Clau
TTITLE0=s Blues, The
TTITLE1=Victoria Spivey - Christmas Morning Blues
TTITLE2=Ozie Ware with Duke Ellington's Hot Five - Santa Claus, Bring 
TTITLE2=My Man Back
TTITLE3=Ted Weems and his Orchestra - Winter Wonderland
TTITLE4=Benny Goodman and his Orchestra - Jingle Bells
TTITLE5=Pulney Dandridge and his Swing Band - Santa Claus Came in the 
TTITLE5=Spring
TTITLE6=Louis Prima and his New Orleans Gang - What Will Santa Claus S
TTITLE6=ay (When He Finds Everybody Swingin'?)
TTITLE7=Fats Waller and his Rhythm - Swingin' Them Jingle Bells
TTITLE8=Dick Robertson and his Orchestra - I Want You For Christmas
TTITLE9=Count Basie and his Orchestra - Good Morning Blues (I Want to 
TTITLE9=See Santa Claus)
TTITLE10=Al Bowlly and his Orchestra - Ev'ry Day's a Holiday
TTITLE11=Dick Robertson and his Orchestra - Meet Me Under the Mistleto
TTITLE11=e
TTITLE12=Woody Herman and his Orchestra - Santa Claus is Comint to Tow
TTITLE12=n
TTITLE13=Johnny Otis and his Orchestra - Happy New Year, Baby
TTITLE14=Ella Fitzgerald - Santa Claus Got Stuck In My Chimney
TTITLE15=Lionel Hampton and his Orchestra - Boogie Woogie Santa Claus
TTITLE16=Lionel Hampton and his Orchestra - Merry Christmas, Baby
TTITLE17=Jack Teagarden - Christmas Song, The
TTITLE18=Louis Armstrong with the Commanders - Cool Yule
TTITLE19=Louis Armstrong with the Commanders - 'Zat You, Santa Claus
TTITLE20=Louis Armstrong with Benny Carter's Orchestra - Christmas In 
TTITLE20=New Orleans
TTITLE21=Louis Armstrong with Benny Carter's Orchestra - Christmas Nig
TTITLE21=ht In Harlem
TTITLE22=Louis Armstrong - Night Before Christmas, The - A Poem
EXTD=
EXTT0=
EXTT1=
EXTT2=
EXTT3=
EXTT4=
EXTT5=
EXTT6=
EXTT7=
EXTT8=
EXTT9=
EXTT10=
EXTT11=
EXTT12=
EXTT13=
EXTT14=
EXTT15=
EXTT16=
EXTT17=
EXTT18=
EXTT19=
EXTT20=
EXTT21=
EXTT22=
PLAYORDER=
